<?xml version="1.0" standalone="no"?>
<!DOCTYPE svg PUBLIC "-//W3C//DTD SVG 20010904//EN"
 "http://www.w3.org/TR/2001/REC-SVG-20010904/DTD/svg10.dtd">
<svg version="1.0" xmlns="http://www.w3.org/2000/svg"
 width="1024.000000pt" height="1024.000000pt" viewBox="0 0 1024.000000 1024.000000"
 preserveAspectRatio="xMidYMid meet">
<metadata>
Created by potrace 1.14, written by Peter Selinger 2001-2017
</metadata>
<g transform="translate(0.000000,1024.000000) scale(0.100000,-0.100000)"
fill="#000000" stroke="none">
<path d="M4740 9892 c-9 -10 -15 -10 -26 -1 -8 7 -14 7 -14 1 0 -13 -38 -23
-45 -11 -3 4 -17 4 -30 -1 -14 -5 -25 -6 -25 -1 0 5 -16 5 -35 1 -24 -5 -35
-4 -35 4 0 6 -4 5 -9 -3 -5 -8 -25 -15 -44 -16 -18 -1 -39 -5 -45 -9 -7 -4
-16 -4 -22 -1 -5 3 -10 0 -10 -7 0 -9 -3 -9 -10 2 -8 13 -10 12 -10 -4 0 -15
-3 -16 -14 -7 -8 7 -16 8 -19 4 -3 -5 -21 -8 -41 -7 -20 1 -36 -1 -36 -5 0 -4
-10 -7 -22 -6 -13 1 -27 0 -33 -3 -5 -3 -25 -7 -45 -9 -19 -2 -36 -8 -38 -12
-2 -5 -12 -7 -22 -4 -11 3 -20 1 -20 -5 0 -6 -10 -8 -22 -4 -12 3 -19 1 -15
-4 3 -6 -7 -9 -24 -8 -16 1 -29 -2 -29 -7 0 -4 -6 -6 -14 -3 -8 3 -17 0 -21
-6 -5 -8 -11 -8 -21 1 -11 9 -14 8 -14 -3 0 -10 -11 -14 -35 -13 -22 0 -35 -4
-35 -12 0 -7 -5 -13 -11 -13 -5 0 -8 4 -5 9 4 5 -3 7 -14 4 -11 -3 -20 -9 -20
-13 0 -5 -9 -6 -20 -3 -12 3 -20 0 -20 -7 0 -9 -4 -9 -17 1 -13 11 -15 11 -9
1 6 -9 3 -12 -10 -10 -12 2 -18 -2 -16 -11 3 -12 0 -12 -12 -1 -11 8 -16 9
-16 1 0 -6 -7 -11 -15 -11 -8 0 -15 -5 -15 -11 0 -8 -4 -8 -13 -1 -15 13 -43
-1 -33 -16 4 -6 -2 -8 -16 -4 -13 3 -19 1 -15 -5 5 -7 0 -9 -13 -6 -12 3 -20
0 -20 -7 0 -9 -4 -9 -17 1 -9 8 -14 9 -10 3 7 -13 -26 -27 -55 -24 -10 1 -18
-4 -18 -9 0 -6 -11 -11 -25 -11 -14 0 -25 -6 -25 -13 0 -8 -7 -14 -15 -14 -12
0 -12 3 -3 16 8 9 2 8 -12 -4 -14 -11 -28 -24 -31 -28 -3 -5 -14 -1 -23 9 -17
16 -17 16 -14 -1 2 -13 -6 -21 -29 -27 -18 -5 -33 -13 -33 -19 0 -6 5 -7 12
-3 7 5 8 3 3 -5 -5 -9 -10 -10 -18 -2 -15 15 -30 14 -21 -1 5 -7 2 -9 -9 -5
-9 3 -18 -1 -21 -10 -5 -12 -9 -13 -20 -3 -12 9 -17 7 -25 -8 -6 -11 -7 -23
-3 -27 4 -5 1 -5 -6 -1 -7 4 -10 13 -6 19 3 7 -1 4 -10 -7 -8 -10 -19 -15 -25
-11 -6 3 -11 -1 -11 -11 0 -13 -3 -14 -15 -4 -10 9 -15 9 -15 1 0 -6 -7 -11
-15 -11 -8 0 -15 -5 -15 -11 0 -5 5 -7 12 -3 7 5 8 3 3 -6 -6 -10 -11 -9 -22
5 -12 18 -13 18 -13 1 0 -12 -5 -16 -15 -12 -9 3 -15 0 -15 -9 0 -7 -5 -17
-12 -21 -7 -4 -8 -3 -4 4 10 17 -10 15 -27 -3 -8 -8 -17 -11 -21 -8 -3 4 -6 1
-6 -6 0 -7 -5 -9 -12 -5 -8 5 -7 0 2 -11 14 -17 14 -18 -7 -6 -19 9 -22 9 -17
-2 3 -8 -2 -17 -11 -21 -10 -3 -14 -2 -9 5 4 7 0 7 -15 -1 -13 -6 -19 -16 -14
-23 5 -8 2 -8 -9 1 -13 10 -17 10 -22 -4 -4 -10 -12 -14 -22 -10 -15 6 -15 4
-3 -11 7 -10 9 -15 5 -11 -5 4 -15 3 -23 -4 -11 -9 -12 -7 -7 8 4 11 -2 8 -13
-8 -15 -22 -22 -25 -32 -15 -10 9 -12 9 -9 -3 2 -10 -4 -15 -18 -14 -11 0 -21
-5 -21 -12 0 -7 5 -10 10 -7 6 4 7 1 3 -6 -5 -7 -14 -10 -22 -7 -8 3 -14 0
-14 -6 0 -6 -3 -8 -7 -5 -3 4 -12 -1 -20 -11 -8 -9 -12 -11 -8 -4 3 6 4 12 1
12 -3 0 -13 -15 -21 -32 -8 -18 -13 -25 -10 -15 7 25 -12 21 -42 -10 -15 -16
-23 -23 -20 -17 3 6 0 11 -7 11 -9 0 -13 -9 -11 -24 2 -19 0 -21 -11 -12 -10
8 -14 8 -14 0 0 -6 -7 -11 -15 -11 -8 0 -15 -7 -15 -15 0 -8 -5 -15 -11 -15
-5 0 -7 6 -4 13 4 6 -2 1 -13 -12 -10 -13 -24 -21 -31 -17 -7 5 -9 1 -4 -10 4
-12 3 -15 -5 -10 -11 7 -17 -6 -13 -27 1 -5 -3 -6 -9 -2 -6 3 -7 12 -4 18 4 7
-7 -3 -25 -22 -17 -19 -31 -29 -31 -23 0 7 -4 12 -9 12 -5 0 -8 -11 -7 -24 2
-19 -1 -23 -15 -21 -11 2 -19 0 -19 -6 0 -5 -7 -9 -17 -9 -9 0 -13 -3 -10 -7
4 -3 -3 -11 -16 -18 -12 -6 -21 -18 -21 -27 1 -8 -6 -15 -15 -14 -9 0 -15 -5
-13 -12 1 -8 -2 -11 -8 -7 -14 9 -52 -14 -44 -27 5 -7 2 -9 -8 -5 -17 6 -63
-35 -51 -46 6 -6 -11 -11 -30 -8 -4 0 -6 -2 -6 -6 3 -20 -2 -34 -10 -28 -5 3
-12 1 -16 -5 -3 -5 -1 -10 6 -10 7 0 10 -3 7 -6 -4 -3 -15 -1 -27 5 -17 10
-19 8 -16 -10 3 -15 0 -19 -10 -15 -13 5 -20 -10 -16 -36 0 -4 -7 -4 -16 -1
-12 5 -15 2 -10 -10 5 -15 3 -16 -13 -7 -16 9 -18 7 -15 -10 2 -11 -1 -20 -6
-20 -6 0 -7 -6 -3 -12 6 -10 4 -10 -8 0 -13 10 -16 9 -21 -8 -3 -11 -9 -20
-14 -19 -20 3 -25 -2 -14 -15 10 -12 9 -14 -6 -10 -12 3 -26 -4 -38 -18 l-20
-23 21 18 c28 23 39 22 15 -2 -11 -11 -27 -21 -38 -23 -10 -2 -18 -12 -18 -22
0 -11 -7 -21 -15 -23 -13 -4 -13 -3 0 6 8 6 10 11 4 11 -6 0 -17 -7 -24 -15
-9 -10 -9 -15 -1 -15 6 0 11 -4 11 -9 0 -5 -8 -8 -17 -6 -26 4 -36 -5 -23 -20
8 -10 6 -13 -7 -11 -10 0 -18 -4 -18 -10 0 -6 -15 -23 -32 -38 -18 -15 -32
-32 -30 -39 1 -6 -5 -12 -13 -12 -8 0 -14 -6 -13 -13 2 -7 -2 -12 -7 -12 -6 0
-10 -7 -10 -15 0 -8 -5 -15 -11 -15 -8 0 -8 -4 0 -14 9 -11 6 -13 -13 -11 -18
2 -23 -1 -19 -11 3 -9 0 -14 -7 -12 -7 2 -14 -6 -16 -17 -1 -10 -13 -28 -26
-38 -13 -10 -18 -16 -12 -13 6 3 11 -1 11 -7 0 -7 -10 -14 -21 -15 -11 0 -22
-6 -24 -12 -2 -5 -9 -7 -14 -4 -7 4 -8 2 -4 -5 6 -9 11 -9 24 0 10 7 2 -2 -15
-18 -33 -31 -44 -50 -20 -37 7 4 8 3 4 -2 -5 -5 -16 -9 -25 -9 -11 0 -16 -7
-14 -19 2 -10 -1 -15 -6 -12 -13 8 -24 -22 -15 -37 4 -7 -2 -5 -12 3 -10 8
-16 10 -12 3 4 -6 0 -18 -9 -27 -8 -9 -12 -20 -9 -26 6 -9 -8 -15 -29 -11 -5
1 -4 -4 2 -11 8 -10 4 -19 -18 -36 -19 -15 -27 -29 -23 -39 5 -13 2 -15 -12
-10 -15 6 -16 5 -5 -8 11 -14 7 -19 -12 -16 -4 0 -5 -8 -3 -19 2 -11 -1 -19
-8 -17 -7 1 -11 -6 -11 -15 1 -10 -5 -18 -13 -18 -9 0 -13 -6 -9 -15 3 -9 0
-15 -10 -15 -8 0 -12 -5 -9 -10 4 -6 11 -7 17 -4 6 4 8 2 5 -4 -7 -11 -32 -11
-43 1 -11 11 -26 8 -19 -3 8 -13 -8 -13 -23 0 -6 6 -10 7 -7 4 2 -4 0 -16 -6
-27 -9 -15 -8 -18 3 -11 10 6 11 4 2 -7 -5 -8 -10 -28 -9 -45 1 -21 -3 -30
-11 -27 -7 3 -10 -5 -9 -21 2 -14 -1 -26 -6 -26 -5 0 -9 -7 -9 -15 0 -8 -4
-15 -9 -15 -5 0 -8 -8 -7 -17 0 -11 -5 -17 -13 -15 -12 3 -12 0 -1 -12 10 -13
10 -16 0 -16 -7 0 -10 -8 -7 -20 3 -11 0 -23 -5 -27 -7 -3 -8 -1 -4 5 4 7 2
12 -4 12 -6 0 -8 5 -4 12 4 6 3 8 -3 5 -6 -4 -8 -19 -5 -33 4 -21 2 -25 -9
-19 -11 7 -11 5 1 -10 9 -11 10 -16 3 -11 -8 4 -13 2 -13 -4 0 -6 -4 -9 -9 -6
-5 4 -7 -4 -3 -16 3 -14 2 -19 -6 -14 -16 10 -15 -7 0 -23 11 -10 9 -11 -6 -5
-13 5 -17 4 -12 -4 3 -6 -2 -16 -13 -21 -13 -8 -17 -17 -14 -32 5 -17 3 -20
-8 -14 -11 7 -11 5 1 -10 9 -11 10 -16 3 -11 -8 4 -13 2 -13 -4 0 -6 -4 -9 -9
-5 -6 3 -8 -4 -6 -15 2 -11 -3 -26 -11 -34 -12 -13 -12 -16 2 -24 16 -9 15
-10 -4 -16 -13 -5 -19 -13 -17 -26 3 -14 -1 -17 -12 -13 -13 5 -15 2 -11 -15
4 -12 2 -22 -4 -22 -5 0 -6 -4 -3 -10 3 -5 1 -10 -5 -10 -7 0 -9 -7 -6 -16 3
-9 -5 -25 -22 -41 -15 -15 -21 -23 -15 -19 16 9 18 -20 3 -29 -5 -3 -10 -18
-10 -32 0 -18 -4 -24 -14 -20 -10 4 -14 0 -11 -14 2 -10 -1 -19 -7 -19 -7 0
-6 -6 2 -15 10 -12 10 -15 -3 -15 -11 0 -13 -6 -9 -22 3 -15 2 -19 -7 -14 -6
4 -11 4 -10 -1 4 -24 -3 -53 -15 -66 -10 -10 -11 -18 -5 -24 7 -7 6 -15 -3
-24 -7 -8 -14 -25 -14 -39 -3 -46 -4 -51 -12 -46 -4 2 -9 -7 -10 -22 -1 -15
-6 -28 -11 -30 -5 -2 -7 -12 -4 -22 3 -11 0 -20 -6 -20 -6 0 -11 -5 -11 -11 0
-5 6 -7 13 -3 6 4 1 -3 -11 -16 -19 -18 -26 -20 -35 -10 -7 8 -8 10 -1 7 6 -3
11 0 11 7 0 8 -7 12 -14 9 -10 -4 -13 0 -11 12 3 19 -27 30 -38 14 -3 -5 -2
-9 3 -9 8 0 10 -50 2 -66 -5 -8 -4 -31 1 -36 6 -8 5 -46 -1 -42 -4 2 -10 -17
-14 -43 -3 -27 -8 -56 -10 -65 -2 -10 1 -18 7 -18 5 0 7 -4 3 -9 -3 -5 2 -17
11 -25 8 -9 11 -16 5 -16 -5 0 -12 4 -16 10 -3 5 -13 6 -22 3 -11 -4 -14 -3
-9 5 4 7 4 12 -1 12 -4 0 -16 14 -25 31 -10 17 -13 27 -5 23 9 -5 9 -4 0 7 -7
7 -13 20 -13 29 0 10 -10 22 -22 29 -13 6 -15 9 -5 7 24 -7 21 5 -9 33 -21 20
-27 22 -35 10 -19 -30 -16 -149 5 -161 8 -5 13 -17 11 -29 -3 -14 0 -19 9 -16
9 4 12 0 9 -13 -3 -10 1 -21 8 -25 8 -6 10 -4 4 6 -5 8 -4 11 1 6 5 -5 9 -14
9 -20 1 -7 7 -11 14 -9 7 1 10 -2 6 -7 -3 -6 -13 -8 -23 -5 -9 3 -6 -2 8 -10
14 -8 21 -16 15 -16 -5 0 -3 -5 5 -10 12 -8 12 -10 1 -10 -9 0 -10 -4 -4 -12
5 -7 8 -23 7 -35 0 -13 3 -23 7 -23 5 0 9 -5 9 -11 0 -5 -4 -7 -10 -4 -6 3 -7
-1 -4 -10 5 -13 9 -13 22 -3 12 10 14 10 8 1 -4 -7 -2 -13 4 -13 8 0 7 -6 -1
-21 -9 -17 -8 -20 2 -14 9 6 11 2 7 -13 -4 -12 -3 -20 2 -17 11 7 19 -30 9
-46 -4 -8 -3 -19 3 -26 7 -9 7 -13 0 -13 -6 0 -9 -7 -6 -15 4 -8 1 -15 -6 -15
-9 0 -9 -4 1 -17 8 -9 9 -14 3 -10 -7 4 -14 0 -18 -8 -3 -8 -1 -15 4 -15 6 0
6 -9 0 -25 -6 -16 -6 -26 1 -31 7 -4 6 -10 -1 -19 -7 -8 -7 -15 -1 -19 6 -4 6
-18 1 -36 -5 -18 -5 -32 1 -36 6 -4 6 -11 -2 -20 -9 -11 -9 -14 1 -14 10 0 10
-3 1 -14 -9 -10 -9 -16 -1 -21 8 -5 8 -10 0 -20 -6 -7 -7 -16 -2 -19 10 -6 9
-36 -1 -53 -4 -6 -3 -15 3 -18 7 -4 7 -12 2 -18 -10 -14 -10 -27 1 -44 4 -6 3
-14 -3 -18 -6 -4 -7 -12 -3 -18 12 -19 11 -49 -2 -53 -17 -7 -13 -93 5 -104 9
-6 10 -10 3 -10 -12 0 -12 -24 0 -36 4 -4 2 -13 -4 -21 -9 -10 -8 -13 1 -13
10 0 10 -3 1 -14 -9 -10 -9 -16 -1 -21 8 -5 8 -10 0 -20 -8 -9 -8 -15 0 -20 7
-4 7 -12 0 -25 -7 -13 -7 -21 0 -25 7 -4 7 -13 0 -26 -6 -10 -7 -19 -2 -19 5
0 9 -7 9 -15 0 -8 -4 -15 -9 -15 -5 0 -6 -5 -3 -10 4 -6 11 -8 16 -5 5 3 6 -1
3 -9 -3 -9 -2 -16 2 -16 5 0 9 -18 9 -40 0 -22 -3 -40 -6 -40 -3 0 -4 -11 -1
-25 2 -14 8 -22 12 -20 5 3 12 0 16 -6 4 -7 3 -9 -4 -5 -6 3 -13 2 -17 -4 -3
-5 -2 -10 3 -10 8 0 11 -27 13 -103 0 -9 4 -15 8 -13 4 3 7 -5 6 -17 -1 -12 1
-31 5 -43 5 -11 3 -28 -2 -38 -7 -13 -6 -21 2 -29 10 -9 11 -9 5 3 -5 9 -4 12
1 7 4 -4 9 -20 10 -35 0 -15 6 -38 11 -52 6 -14 9 -28 6 -32 -2 -5 0 -8 6 -8
6 0 6 -11 1 -29 -6 -22 -4 -33 6 -42 7 -6 11 -15 8 -20 -3 -5 1 -9 8 -9 9 0 9
-3 -2 -10 -11 -7 -11 -10 -2 -10 7 0 10 -4 7 -10 -3 -5 -2 -10 3 -10 5 0 8
-13 7 -30 -1 -16 1 -30 4 -30 4 0 8 -10 8 -22 1 -13 7 -24 13 -26 8 -3 8 -8 0
-17 -8 -9 -7 -14 4 -18 9 -3 12 -15 9 -31 -3 -16 -1 -26 6 -26 7 0 9 -4 6 -10
-3 -5 1 -20 9 -32 12 -16 13 -25 4 -35 -8 -11 -7 -12 6 -7 12 5 15 2 10 -11
-5 -11 -1 -21 9 -26 9 -6 13 -17 10 -29 -3 -13 0 -20 8 -20 11 0 11 -2 -1 -10
-10 -6 -11 -10 -2 -10 6 0 12 -9 12 -20 0 -11 5 -20 11 -20 5 0 7 -5 3 -11 -3
-6 0 -15 7 -20 10 -6 10 -9 2 -9 -7 0 -10 -7 -7 -15 4 -8 9 -13 13 -11 4 3 8
-10 9 -27 2 -18 7 -34 12 -35 6 -2 8 -8 4 -13 -3 -5 1 -9 8 -9 9 0 9 -3 -2
-10 -12 -8 -12 -10 5 -10 17 0 17 -2 5 -10 -12 -8 -12 -10 5 -10 17 0 17 -2 5
-10 -12 -8 -12 -10 -1 -10 8 0 11 -7 8 -20 -3 -13 3 -28 19 -42 13 -13 24 -27
24 -33 0 -5 -5 -3 -10 5 -7 10 -10 11 -10 2 0 -7 7 -15 16 -19 8 -3 13 -12 10
-19 -3 -8 2 -14 12 -15 11 0 13 -2 4 -6 -10 -4 -8 -11 8 -28 14 -15 18 -25 11
-30 -8 -4 -6 -11 4 -21 8 -9 12 -20 9 -26 -5 -7 -2 -8 6 -3 10 6 12 3 8 -13
-4 -12 -3 -20 2 -17 4 3 14 -3 21 -12 10 -12 10 -14 2 -9 -18 10 -16 -2 2 -21
8 -8 12 -19 9 -25 -5 -7 -2 -8 6 -3 9 6 12 4 8 -6 -6 -15 25 -62 35 -53 3 3 3
-3 0 -15 -3 -14 0 -23 12 -27 12 -5 13 -9 4 -14 -8 -6 -5 -11 10 -19 22 -12
30 -37 8 -26 -6 4 -2 -2 11 -13 15 -14 18 -22 10 -25 -9 -4 -8 -6 3 -6 17 -1
42 -40 37 -58 -2 -6 9 -25 25 -42 29 -33 34 -46 15 -36 -7 4 0 -5 16 -18 18
-16 27 -31 23 -41 -4 -10 -1 -13 8 -10 10 4 13 0 10 -16 -4 -18 -2 -20 11 -9
13 10 13 8 4 -15 -7 -19 -7 -25 1 -21 14 10 51 -31 47 -53 -2 -9 2 -16 9 -15
7 2 17 -6 23 -17 6 -11 16 -17 22 -14 7 4 8 3 4 -5 -4 -6 -13 -9 -19 -5 -7 3
-3 -3 8 -13 11 -10 27 -27 35 -38 14 -19 14 -19 -6 -5 -20 15 -20 15 1 -5 11
-11 26 -33 34 -47 8 -15 18 -25 23 -22 4 3 8 0 8 -6 0 -6 4 -8 10 -5 9 5 15
-15 11 -37 0 -5 6 -8 15 -8 8 0 13 -4 9 -9 -3 -5 4 -13 16 -16 17 -6 19 -9 8
-17 -10 -7 -7 -8 10 -4 18 4 21 2 12 -7 -18 -18 -13 -31 6 -16 11 10 14 10 9
2 -4 -8 -2 -13 4 -13 7 0 10 -6 7 -12 -7 -21 12 -48 33 -48 13 0 18 -5 14 -15
-4 -8 1 -17 10 -21 9 -3 16 -10 16 -16 0 -5 -6 -6 -12 -2 -8 5 -7 1 2 -10 13
-17 14 -17 20 0 6 15 8 14 14 -9 4 -17 11 -25 18 -21 8 5 9 0 5 -17 -6 -23 -6
-23 9 -4 15 19 15 19 10 -7 -2 -15 0 -31 6 -34 7 -5 8 -2 3 5 -5 9 -1 9 14 -1
19 -11 19 -13 4 -19 -13 -4 -11 -7 12 -13 23 -6 26 -9 14 -18 -11 -8 -10 -9 7
-5 13 3 21 -1 21 -9 0 -7 -5 -10 -10 -7 -6 4 -7 1 -3 -6 5 -7 14 -10 22 -7 8
3 14 -1 14 -10 0 -9 5 -12 12 -8 8 5 9 2 5 -11 -6 -14 -3 -16 13 -12 11 3 23
0 27 -5 3 -6 2 -8 -3 -5 -6 3 -16 2 -24 -4 -12 -7 -10 -9 8 -9 12 0 22 -4 22
-10 0 -5 7 -10 16 -10 8 0 12 -4 9 -10 -3 -5 2 -10 12 -10 15 0 16 -2 3 -10
-13 -9 -13 -10 0 -11 8 -1 19 -1 23 0 5 1 6 -3 2 -9 -6 -9 8 -15 29 -11 5 1 4
-4 -3 -13 -10 -12 -8 -15 8 -21 11 -3 20 -12 18 -18 -1 -7 6 -11 17 -9 11 2
15 -1 11 -7 -3 -6 -1 -11 5 -11 6 0 8 -5 4 -12 -5 -8 -2 -9 11 -5 14 6 16 3
12 -13 -4 -17 -3 -19 9 -9 11 9 14 9 14 0 0 -7 5 -9 10 -6 6 3 10 1 10 -5 0
-6 5 -8 12 -4 8 5 7 0 -2 -11 -9 -11 -10 -16 -2 -11 7 4 12 2 12 -4 0 -7 7
-10 15 -6 8 3 14 1 12 -3 -1 -5 1 -8 4 -7 11 2 39 -26 33 -35 -3 -5 0 -9 6 -9
6 0 8 -5 4 -12 -5 -8 -2 -9 9 -5 11 4 17 1 17 -8 0 -8 9 -15 19 -15 10 0 22
-7 25 -16 3 -8 10 -12 16 -9 6 4 7 -1 3 -11 -4 -12 -3 -15 5 -10 7 4 12 2 12
-4 0 -6 5 -8 11 -5 6 4 9 0 7 -11 -2 -15 2 -18 20 -16 14 2 22 -2 22 -12 0
-10 6 -13 17 -9 11 4 14 3 9 -5 -4 -7 -2 -12 4 -12 6 0 8 -5 4 -12 -5 -8 -2
-9 9 -5 10 3 17 2 17 -2 0 -5 -6 -12 -12 -14 -7 -3 -3 -6 10 -6 15 -1 21 3 16
11 -4 7 -3 8 5 4 6 -4 9 -12 6 -17 -4 -5 -1 -9 4 -9 6 0 11 -8 12 -17 0 -11 3
-13 6 -5 2 6 9 12 14 12 6 0 7 -4 4 -10 -3 -5 3 -10 14 -10 12 0 21 -7 21 -15
0 -9 6 -12 17 -8 12 5 14 3 8 -7 -6 -10 -4 -12 8 -7 12 4 14 2 10 -10 -4 -11
-2 -14 5 -9 8 4 12 1 12 -10 0 -10 3 -14 7 -11 3 4 13 1 21 -6 13 -10 15 -9 8
3 -4 8 -1 7 8 -4 8 -10 20 -15 27 -10 8 5 10 3 5 -5 -5 -8 0 -14 13 -18 12 -3
21 -9 21 -14 0 -5 9 -9 21 -9 11 0 17 -4 14 -10 -3 -5 3 -10 14 -10 12 0 21
-7 21 -15 0 -9 6 -12 17 -8 12 5 14 3 8 -7 -6 -10 -4 -12 8 -7 12 4 14 2 10
-10 -4 -11 -2 -14 5 -9 8 4 12 0 13 -11 0 -16 1 -16 9 2 5 11 9 15 9 8 1 -6
10 -15 21 -18 11 -4 17 -11 14 -17 -5 -7 2 -9 19 -6 16 3 24 1 21 -6 -2 -6 10
-17 27 -25 27 -12 33 -12 41 0 7 11 8 9 6 -6 -2 -12 3 -20 12 -20 8 0 20 -6
26 -14 6 -8 16 -11 22 -7 6 4 18 -6 27 -21 10 -17 14 -20 11 -8 -6 19 -5 19 8
2 7 -9 20 -17 29 -17 9 0 19 -5 23 -12 4 -6 3 -8 -4 -4 -6 3 -13 2 -16 -3 -3
-4 2 -8 12 -7 9 0 34 -6 54 -14 32 -12 35 -16 25 -29 -10 -14 -10 -14 5 -3 13
10 22 11 38 2 12 -6 28 -9 35 -6 8 3 17 0 21 -6 5 -7 2 -8 -7 -3 -12 8 -12 6
0 -8 11 -14 17 -15 28 -5 11 9 13 8 11 -3 -2 -8 5 -14 18 -14 12 -1 29 -8 38
-18 10 -9 22 -15 27 -12 5 4 9 1 9 -6 0 -7 3 -9 7 -6 3 4 17 0 31 -9 13 -8 31
-13 40 -9 9 3 14 3 10 0 -3 -4 1 -15 9 -25 12 -14 22 -16 39 -10 15 6 26 5 30
-2 5 -7 3 -8 -6 -3 -8 5 -11 4 -6 -3 4 -6 13 -9 21 -5 8 3 15 0 15 -6 0 -6 7
-8 15 -5 9 4 15 0 15 -7 0 -11 3 -11 10 1 7 11 10 11 10 2 0 -7 5 -10 10 -7 6
3 10 1 10 -5 0 -6 5 -8 10 -5 6 3 10 0 10 -7 0 -9 3 -9 10 2 7 11 10 11 10 2
0 -7 4 -10 10 -7 5 3 10 1 10 -4 0 -6 3 -10 8 -9 13 4 52 -13 52 -23 0 -5 5
-9 11 -9 5 0 7 6 3 13 -6 9 -5 9 7 0 9 -7 24 -14 35 -16 10 -1 25 -7 33 -11
10 -6 12 -5 7 2 -5 8 -2 10 8 6 9 -3 16 -10 16 -14 0 -4 7 -11 16 -14 8 -3 12
-2 9 4 -3 6 1 7 9 4 9 -3 16 -9 16 -13 0 -6 10 -9 65 -14 14 -1 25 -6 25 -12
0 -5 5 -3 10 5 8 12 10 12 10 1 0 -8 3 -11 6 -8 4 3 16 1 28 -5 11 -6 30 -13
41 -15 37 -5 50 -9 62 -16 6 -4 15 -2 19 4 5 8 9 8 14 -1 5 -7 23 -15 41 -17
18 -2 39 -9 48 -16 12 -9 13 -9 7 1 -4 6 -2 12 4 12 6 0 13 -7 16 -15 5 -11
10 -13 19 -5 10 8 15 8 20 0 5 -8 10 -8 20 0 9 8 14 7 18 -4 3 -9 15 -12 31
-9 18 4 26 1 26 -8 0 -12 2 -12 9 0 6 9 11 10 15 2 4 -7 15 -7 31 -1 16 6 27
6 31 -2 5 -7 3 -8 -6 -3 -8 5 -11 4 -6 -3 4 -6 13 -9 21 -5 8 3 15 0 15 -7 0
-10 3 -10 14 -1 10 8 16 9 21 1 4 -7 12 -7 25 0 13 7 21 7 25 0 5 -8 11 -8 20
0 9 7 15 7 19 1 4 -5 15 -8 26 -6 12 2 18 0 14 -6 -4 -7 5 -10 22 -8 16 2 35
0 42 -4 6 -5 12 -4 12 2 0 6 6 8 13 6 6 -3 28 -6 47 -9 49 -5 64 -9 72 -21 5
-6 8 -5 8 4 0 10 3 11 14 2 11 -9 15 -9 19 1 3 10 7 10 17 1 9 -8 19 -9 31 -3
10 6 20 6 23 2 3 -5 26 -6 51 -2 25 4 45 3 45 -1 0 -5 11 -4 25 1 16 6 26 6
31 -1 4 -7 10 -6 19 1 8 7 15 7 19 1 5 -8 26 -8 46 -1 14 6 36 4 46 -3 6 -4
23 -3 36 2 14 5 31 5 38 1 8 -5 21 -5 30 0 11 6 21 5 28 -2 9 -9 12 -9 12 1 0
8 6 11 15 7 8 -3 15 -1 15 3 0 5 32 9 70 9 39 0 74 2 77 6 3 3 12 1 20 -5 9
-8 13 -8 13 -1 0 6 7 9 15 6 9 -4 15 -1 15 7 0 10 3 10 12 1 9 -9 16 -8 30 5
13 11 18 12 18 3 0 -10 3 -10 15 0 8 6 20 8 26 4 8 -4 9 -3 5 4 -4 8 5 10 29
8 20 -1 38 1 41 6 3 4 13 4 23 -2 10 -5 21 -7 24 -3 4 3 17 7 29 8 38 4 39 5
32 17 -6 10 -4 10 8 0 13 -11 19 -11 29 1 7 7 24 11 37 9 14 -3 23 -1 20 4 -3
5 17 10 45 11 29 1 53 7 55 12 2 7 10 8 22 1 10 -5 20 -6 22 -1 2 4 14 12 27
16 18 6 22 4 15 -6 -7 -12 -5 -12 9 -1 9 8 22 10 29 6 10 -6 10 -4 0 9 -12 14
-11 16 9 12 13 -3 28 2 36 13 8 9 12 11 8 4 -3 -6 -1 -12 4 -12 6 0 11 5 11
11 0 6 9 9 20 6 11 -3 20 -1 20 4 0 4 7 6 15 3 9 -4 15 0 15 7 0 12 2 12 9 1
6 -11 10 -10 15 3 5 15 9 15 23 4 15 -12 16 -12 9 6 -5 15 -4 17 5 8 9 -9 15
-8 26 3 12 12 18 12 30 3 11 -10 15 -8 20 9 3 13 10 19 17 15 21 -14 36 -11
36 5 0 10 3 13 8 7 4 -5 13 -11 21 -13 12 -3 12 0 1 13 -11 13 -10 15 4 9 10
-4 16 -1 16 7 0 11 3 11 10 -1 8 -12 10 -12 10 -1 0 8 7 11 20 8 11 -3 23 0
27 5 3 7 1 8 -5 4 -8 -5 -10 -2 -6 9 6 14 8 14 20 -2 12 -17 13 -17 14 -1 0
11 5 15 15 12 8 -4 15 -1 15 6 0 10 3 10 14 1 11 -10 16 -8 21 8 3 11 14 20
23 20 43 2 62 6 62 12 0 3 19 12 43 19 23 8 48 18 56 24 8 6 15 9 15 7 2 -8
46 11 46 20 0 6 5 7 10 4 6 -3 10 0 10 7 0 9 3 9 10 -2 8 -13 10 -12 10 3 0
10 5 15 10 12 6 -3 10 -2 10 3 0 6 8 8 19 5 10 -3 22 1 26 8 6 8 4 10 -5 4 -9
-5 -11 -4 -6 4 6 9 11 9 24 -1 12 -10 14 -10 8 0 -4 7 -1 12 8 12 10 0 13 6 9
18 -5 13 -3 15 7 5 17 -16 74 11 63 30 -5 9 -3 9 8 1 11 -9 17 -9 26 1 6 7 9
17 5 21 -4 5 0 3 9 -4 14 -10 18 -10 22 2 4 9 15 13 26 11 14 -3 18 1 14 11
-3 8 -2 14 3 12 13 -4 124 53 124 63 0 5 9 9 20 9 11 0 20 5 20 10 0 6 9 10
21 10 13 0 18 4 13 13 -5 7 0 6 11 -3 17 -14 18 -13 12 4 -6 15 -4 17 13 13
11 -3 18 -1 14 4 -3 5 0 9 6 9 6 0 8 5 4 13 -5 8 -2 8 9 -2 15 -12 17 -11 18
5 0 11 3 14 5 7 4 -8 11 -7 23 5 10 9 15 22 12 27 -2 6 3 4 12 -4 13 -10 17
-10 17 -1 0 7 7 10 16 6 14 -5 15 -4 5 8 -11 13 -9 14 14 10 20 -3 25 -1 19 8
-6 10 -4 10 9 0 9 -8 21 -11 27 -7 5 3 10 0 10 -8 0 -8 9 -17 21 -20 13 -4 18
-10 13 -18 -4 -8 -3 -10 4 -5 7 4 17 4 23 0 8 -4 7 -9 -2 -15 -8 -5 -9 -9 -3
-9 5 0 18 6 28 13 17 12 17 15 3 29 -9 9 -13 19 -9 24 4 5 -4 0 -18 -11 -20
-16 -22 -17 -11 -2 12 15 12 20 1 30 -10 10 -11 9 -5 -2 5 -9 4 -12 -3 -7 -6
4 -8 14 -5 22 3 9 0 20 -8 25 -11 7 -11 9 -1 9 7 0 10 4 7 10 -4 7 2 7 19 0
21 -8 31 -5 53 14 25 21 26 25 13 42 -9 11 -10 15 -2 10 6 -4 12 -2 12 3 0 6
7 11 15 11 8 0 15 5 15 11 0 8 6 7 17 -2 10 -9 14 -9 10 -2 -8 13 46 47 57 36
3 -4 6 -1 6 5 0 7 3 11 8 11 20 -3 25 2 12 12 -12 8 -10 9 8 4 12 -3 22 -3 22
2 0 5 9 9 20 9 11 0 20 -3 20 -6 0 -7 65 -4 78 4 6 3 13 2 17 -4 3 -5 11 -10
16 -10 6 0 8 3 6 8 -3 4 5 8 16 8 12 1 36 5 52 9 17 4 37 7 45 7 30 -1 61 9
55 18 -3 6 1 7 9 4 9 -3 13 -11 9 -18 -3 -6 3 -3 14 7 14 12 23 15 28 8 4 -7
12 -8 23 -2 9 5 26 5 39 0 13 -5 23 -5 23 -1 0 4 27 5 61 2 33 -3 63 -2 66 3
2 4 11 3 19 -4 8 -6 14 -7 14 -2 0 5 23 6 54 3 44 -5 56 -3 65 11 5 10 6 19 1
21 -5 2 -2 12 5 22 11 14 18 16 28 8 10 -9 19 -7 37 5 13 9 20 11 16 5 -4 -7
-2 -12 3 -12 6 0 11 6 11 13 0 8 4 7 10 -3 8 -13 10 -13 10 2 0 15 4 16 26 8
16 -7 23 -7 19 0 -3 6 3 10 14 10 11 0 26 6 33 13 7 8 19 12 27 9 9 -3 11 0 6
8 -6 10 -4 12 8 7 12 -4 17 -1 17 10 0 12 3 14 11 6 7 -7 21 -8 40 -3 16 5 31
5 34 0 6 -10 45 -1 45 10 0 4 12 5 26 2 17 -3 25 -1 21 5 -4 7 7 8 33 3 23 -4
43 -3 46 2 3 5 12 4 20 -3 8 -6 14 -7 14 -2 0 7 15 7 40 3 23 -4 43 -3 46 2 3
5 12 4 20 -3 8 -6 14 -8 14 -3 0 5 15 10 33 11 34 1 51 5 79 17 9 4 22 5 27 2
6 -4 8 2 6 14 -3 16 -1 19 12 11 11 -6 21 -4 31 6 12 12 16 12 23 1 7 -11 9
-11 9 1 0 10 3 11 13 3 10 -8 16 -6 25 9 15 24 8 39 -19 39 -13 0 -18 4 -13
12 4 7 3 8 -4 4 -7 -4 -12 -15 -12 -24 0 -12 -3 -13 -8 -5 -5 8 -13 9 -22 3
-9 -5 -20 -5 -28 2 -10 9 -16 8 -23 -3 -6 -10 -9 -10 -9 -1 0 6 -9 12 -19 12
-11 0 -23 5 -26 10 -5 8 -11 8 -20 0 -10 -8 -15 -8 -20 0 -5 8 -11 8 -19 1 -9
-7 -16 -7 -24 1 -9 9 -12 9 -12 0 0 -10 -5 -10 -20 -2 -16 8 -18 8 -14 -4 3
-8 0 -17 -7 -22 -7 -4 -10 -3 -6 3 3 5 -8 9 -28 9 -19 -1 -35 -3 -35 -6 0 -7
-51 -5 -77 4 -21 7 -21 8 -5 27 9 10 25 19 35 19 10 0 15 4 12 10 -4 7 3 7 19
0 20 -7 26 -6 26 4 0 7 6 13 14 13 8 0 13 -5 12 -11 -2 -6 -1 -8 2 -3 2 4 13
12 24 18 15 8 19 8 14 0 -5 -7 -1 -9 8 -5 9 3 16 10 16 14 0 5 9 6 20 3 12 -3
20 0 20 8 0 7 3 9 7 6 3 -4 13 -1 21 6 13 9 14 9 8 0 -10 -17 10 -16 26 1 12
12 34 10 59 -5 3 -2 13 2 22 10 14 11 17 11 17 1 0 -8 3 -10 7 -7 3 4 15 -1
26 -10 11 -10 17 -13 14 -6 -4 6 -3 13 2 15 5 1 13 16 17 31 l7 29 -49 -6
c-27 -3 -62 -9 -79 -14 -16 -5 -60 -8 -97 -8 -38 1 -69 -3 -71 -7 -1 -4 -12
-9 -25 -10 -12 0 -22 -4 -22 -8 0 -6 -43 -18 -82 -22 -10 -1 -18 -5 -18 -9 0
-4 -7 -8 -15 -8 -8 0 -15 -4 -15 -10 0 -5 -5 -10 -11 -10 -5 0 -8 4 -4 9 3 5
1 13 -5 16 -6 4 -9 1 -8 -7 2 -7 -3 -12 -9 -10 -7 1 -13 -3 -13 -9 0 -8 -4 -8
-12 -1 -12 10 -19 12 -34 12 -4 0 -2 6 5 13 8 10 7 17 -2 26 -9 10 -8 11 5 6
13 -5 16 -2 13 13 -3 16 1 20 20 17 13 -1 23 3 22 9 -1 6 6 10 16 10 9 -1 17
4 17 12 0 7 5 16 12 20 7 4 8 3 4 -4 -11 -18 10 -14 29 4 12 13 18 14 31 4 12
-11 13 -10 8 4 -6 15 10 22 39 17 5 -1 6 2 3 7 -3 5 14 15 37 22 65 20 122 47
136 64 11 13 7 14 -23 13 -20 -1 -36 -5 -36 -9 0 -5 -9 -8 -20 -8 -11 0 -20
-4 -20 -9 0 -5 -7 -12 -16 -15 -8 -3 -13 -2 -10 2 3 5 -1 9 -9 9 -8 0 -12 -4
-9 -9 3 -4 -2 -8 -10 -8 -9 0 -16 -4 -16 -8 0 -5 -7 -9 -15 -10 -8 -1 -22 -3
-30 -4 -8 -1 -15 -6 -15 -12 0 -6 -5 -4 -10 4 -8 13 -10 12 -10 -2 0 -11 -8
-18 -20 -18 -10 0 -23 -7 -28 -16 -6 -12 -11 -13 -16 -5 -5 8 -12 7 -23 -5 -9
-8 -24 -13 -35 -11 -10 3 -16 1 -13 -3 3 -5 -10 -13 -29 -20 -19 -6 -40 -18
-46 -26 -7 -7 -21 -14 -32 -14 -13 0 -17 -4 -12 -13 5 -8 2 -8 -9 2 -14 11
-17 11 -17 0 -1 -8 -7 -3 -15 11 -8 15 -9 27 -4 31 5 3 -2 11 -16 17 -16 7
-25 8 -25 1 0 -6 -7 -6 -20 1 -12 6 -20 7 -20 1 0 -7 -28 -8 -37 -1 -2 2 -8 3
-14 4 -6 0 -16 9 -23 18 -7 10 -17 14 -22 10 -4 -4 -2 2 6 12 10 13 10 17 3
12 -7 -4 -13 -2 -13 3 0 6 7 11 16 11 14 0 15 2 3 17 -8 9 -13 18 -11 20 1 1
2 9 2 16 0 8 -4 7 -10 -3 -5 -8 -10 -10 -10 -5 0 6 -9 11 -20 11 -11 0 -19 -5
-16 -11 2 -7 -8 -11 -28 -10 -17 1 -35 -1 -40 -4 -5 -2 -22 -5 -37 -5 -24 -1
-27 3 -25 27 1 15 8 33 16 40 11 9 11 8 0 -8 -14 -18 -14 -19 3 -6 9 7 17 19
17 26 0 7 7 18 15 25 11 9 15 9 15 1 0 -7 5 -9 10 -6 8 5 7 12 -2 22 -11 14
-10 15 11 8 16 -5 21 -4 17 4 -7 10 6 16 27 12 5 -1 6 3 2 9 -3 6 -11 7 -17 4
-7 -5 -8 -2 -3 5 4 7 16 10 27 8 16 -5 17 -3 6 11 -10 12 -10 14 0 8 7 -4 12
-2 12 5 0 7 3 10 6 6 8 -7 44 24 38 34 -2 4 4 6 13 5 10 -2 28 0 40 5 12 5 25
4 28 -1 3 -5 18 -5 35 0 17 5 32 5 35 0 3 -5 13 -6 21 -3 9 3 25 6 37 7 12 1
22 8 22 16 0 8 6 16 13 16 24 3 26 4 15 15 -13 13 -6 42 7 34 5 -3 12 0 16 6
4 7 3 9 -3 6 -12 -7 -47 16 -49 32 -1 6 -2 16 -3 22 0 5 -6 7 -13 3 -7 -4 -8
-3 -4 5 4 6 12 9 17 6 11 -7 32 42 23 56 -3 5 -1 9 4 9 5 0 12 9 15 20 4 14
10 18 23 13 14 -5 16 -3 11 10 -5 15 -3 16 13 7 13 -7 21 -7 25 0 5 8 11 7 21
-1 11 -9 14 -9 14 1 0 10 3 10 14 1 10 -9 16 -9 21 -1 5 8 10 8 20 0 9 -7 15
-8 19 -1 4 6 16 7 27 3 26 -10 89 -3 89 10 0 6 8 4 18 -3 16 -13 16 -12 3 4
-13 16 -13 20 0 29 11 8 11 9 -3 4 -10 -3 -18 -1 -18 5 0 6 -4 8 -9 5 -5 -4
-12 0 -14 6 -4 10 -6 10 -6 1 -1 -7 -8 -10 -17 -6 -9 3 -24 6 -35 7 -11 1 -19
5 -18 9 0 5 -8 15 -18 24 -10 8 -12 12 -5 8 6 -3 12 -1 12 5 0 6 5 8 13 4 7
-5 6 0 -3 11 -9 11 -10 16 -2 11 8 -4 12 -1 12 10 0 11 -6 15 -19 11 -10 -2
-26 0 -36 6 -13 7 -16 6 -10 -3 6 -9 3 -9 -12 -1 -11 6 -24 7 -28 3 -4 -4 0 5
9 19 9 14 13 30 9 34 -5 5 1 3 11 -5 13 -10 17 -10 12 -3 -4 7 -3 13 3 13 6 0
7 8 4 18 -7 16 -6 16 11 0 20 -21 31 -24 20 -6 -5 8 -2 9 9 5 10 -4 17 -2 17
4 0 6 7 9 15 5 8 -3 15 -1 15 5 0 6 5 7 12 3 8 -5 9 -2 5 10 -4 10 -3 15 3 11
6 -3 10 0 10 7 0 11 2 10 9 0 7 -11 10 -10 15 3 3 9 4 20 1 25 -3 4 3 7 12 6
9 0 22 9 28 21 7 13 15 20 18 16 4 -3 7 1 7 10 0 9 6 17 13 17 9 0 8 3 -2 9
-11 7 -8 11 10 17 13 4 27 7 32 6 4 -1 7 2 7 8 0 5 -6 10 -12 11 -7 0 0 5 15
11 23 8 26 13 16 25 -7 8 -8 13 -3 12 19 -3 34 1 34 12 0 5 -6 7 -12 3 -7 -4
-4 3 7 17 11 13 16 21 11 16 -15 -12 -58 34 -46 49 8 8 6 16 -4 27 -8 8 -12
17 -9 21 4 3 1 6 -5 6 -6 0 -14 -5 -17 -10 -4 -6 -20 -9 -36 -6 -18 3 -29 0
-29 -7 0 -8 -4 -7 -9 2 -5 7 -13 11 -19 7 -6 -3 -14 -2 -17 4 -5 8 -11 8 -20
0 -9 -8 -15 -8 -20 0 -3 6 -10 8 -14 6 -4 -3 -8 1 -8 9 0 8 5 15 10 15 5 0 7
11 5 25 -3 13 -2 24 1 23 22 -2 29 5 27 27 -2 15 1 22 7 18 7 -4 8 0 3 12 -6
16 -4 16 10 4 16 -13 16 -12 4 11 -13 24 -12 24 5 10 12 -9 16 -10 11 -2 -5 8
1 20 16 33 13 11 18 18 11 15 -6 -4 -14 -2 -18 4 -3 5 1 10 9 10 9 0 16 8 16
19 0 11 5 23 10 26 6 3 8 17 6 30 -3 19 -1 22 11 18 11 -4 14 -2 9 5 -4 7 -2
12 3 12 6 0 11 4 11 10 0 5 -8 7 -17 4 -10 -3 -5 2 10 11 18 10 26 22 23 31
-3 8 -1 14 4 14 5 0 7 7 4 15 -4 8 1 17 9 21 9 3 13 12 10 20 -3 8 0 14 7 14
10 0 9 4 0 16 -11 12 -11 15 1 12 8 -2 13 4 13 14 -1 11 5 18 15 18 12 0 13 2
3 9 -11 7 -11 11 2 24 10 9 14 27 12 46 -3 27 -1 30 12 19 11 -9 14 -9 9 -1
-4 6 -3 14 3 18 7 4 7 12 0 26 -8 15 -7 19 4 19 9 0 12 7 9 20 -3 12 0 20 7
20 8 0 10 8 7 21 -4 16 -2 19 11 14 12 -4 14 -3 6 5 -13 13 -6 60 8 60 6 0 4
8 -3 17 -8 9 -9 14 -4 11 6 -4 15 5 22 18 6 14 7 21 1 18 -5 -4 -4 4 3 17 7
13 12 27 11 32 -1 4 2 7 6 7 5 0 8 20 8 44 -1 24 3 42 8 39 5 -3 7 6 4 20 -3
16 0 31 9 38 11 9 11 15 1 27 -8 10 -9 13 -2 9 16 -9 22 9 20 66 -1 30 3 47
11 47 6 0 15 5 19 12 4 6 3 8 -4 4 -6 -3 -13 -2 -17 4 -3 5 -1 10 5 10 7 0 10
7 7 15 -4 8 -2 17 4 21 7 4 7 10 0 18 -7 9 -7 16 1 24 9 9 9 12 0 12 -6 0 -9
7 -6 15 4 8 11 12 18 8 6 -4 5 1 -3 10 -10 13 -10 17 -1 17 7 0 10 7 6 15 -3
8 0 15 6 15 7 0 7 4 -1 14 -7 8 -8 16 -4 19 4 3 6 43 3 90 -3 47 -3 83 -1 81
8 -7 28 60 21 71 -5 9 -5 31 0 48 6 19 6 33 -2 44 -5 6 -5 14 2 18 6 3 7 12 3
18 -11 17 -13 37 -4 37 9 0 8 31 -3 48 -4 7 -2 12 5 12 7 0 8 5 3 13 -11 14
-11 37 -1 54 4 6 3 15 -3 18 -7 4 -7 12 -2 18 10 14 10 27 -1 45 -5 7 -3 12 5
12 10 0 10 2 1 8 -8 5 -9 13 -3 22 6 8 10 26 10 39 0 16 4 21 14 18 10 -4 14
0 11 14 -2 10 1 19 7 19 7 0 7 4 -1 13 -8 10 -7 17 1 25 9 9 9 12 -1 12 -7 0
-10 4 -7 9 8 12 -15 29 -35 26 -9 -2 -16 4 -16 11 0 8 5 14 10 14 6 0 8 3 4 6
-3 3 -2 17 3 30 6 16 6 24 -1 24 -6 0 -6 6 0 19 8 14 7 22 -5 32 -8 7 -13 18
-10 25 3 7 1 16 -3 19 -5 2 -5 19 -2 37 5 23 2 43 -11 66 -12 21 -14 32 -6 32
9 0 9 3 1 11 -7 7 -8 22 -4 38 9 28 4 54 -8 47 -4 -3 -8 1 -8 9 0 8 5 11 11 8
6 -4 5 1 -2 10 -8 9 -11 21 -7 27 3 5 1 10 -5 10 -6 0 -8 5 -4 11 3 6 0 15 -7
20 -11 7 -11 9 -1 9 7 0 10 5 7 10 -4 6 -12 7 -18 3 -8 -5 -8 -2 0 9 7 8 10
17 7 21 -9 9 -12 57 -3 63 12 7 -1 33 -14 30 -7 -1 -9 -1 -4 1 10 6 9 33 -2
33 -5 0 -12 7 -15 16 -3 8 -2 12 4 9 16 -10 12 7 -7 27 -10 11 -12 18 -4 18 8
0 6 10 -5 33 -17 31 -17 32 2 17 18 -14 18 -14 1 6 -9 11 -14 24 -10 27 3 4 2
7 -4 7 -6 0 -14 7 -17 16 -3 8 -2 12 4 9 6 -3 10 -1 10 5 0 6 -6 13 -14 16
-11 4 -13 12 -5 30 5 14 5 23 0 20 -10 -7 -25 23 -22 42 1 8 -6 24 -16 35 -18
21 -18 21 1 7 18 -14 19 -14 7 8 -6 12 -9 28 -5 34 5 7 3 8 -6 3 -10 -6 -12
-3 -7 14 3 12 -1 27 -9 35 -8 8 -14 24 -14 35 0 12 -5 21 -11 21 -8 0 -8 4 0
14 9 11 9 16 0 22 -8 5 -9 3 -4 -6 5 -8 4 -11 -3 -6 -6 3 -9 15 -7 26 2 11 0
20 -5 20 -4 0 -11 7 -14 16 -3 8 -2 12 4 9 6 -3 10 -1 10 4 0 6 -5 11 -11 11
-5 0 -8 4 -5 9 3 5 -2 12 -11 15 -13 5 -14 9 -5 15 9 6 8 12 -7 25 -12 11 -17
25 -13 38 3 12 1 19 -4 15 -6 -3 -11 6 -12 21 -1 14 -9 30 -17 35 -8 4 -15 13
-15 20 0 7 4 6 10 -3 6 -9 10 -10 10 -3 0 6 -5 15 -10 18 -6 4 -7 11 -4 17 4
7 2 8 -4 4 -8 -5 -12 1 -12 16 0 13 -7 32 -15 42 -8 10 -12 22 -10 26 3 5 -2
10 -10 14 -8 3 -12 11 -9 19 3 8 -2 19 -10 26 -8 7 -12 19 -9 27 3 8 0 14 -7
14 -7 0 -10 6 -7 14 5 13 -24 50 -34 44 -2 -2 2 3 10 10 14 12 13 13 -11 16
-6 0 -13 7 -16 15 -3 9 0 11 9 6 8 -5 6 0 -3 12 -10 11 -18 25 -18 31 0 7 -3
12 -8 12 -4 0 -13 9 -19 20 -11 17 -10 19 5 14 9 -3 6 2 -8 10 -14 9 -19 15
-11 16 11 0 10 4 -4 14 -11 8 -16 20 -12 29 4 10 2 16 -6 14 -7 -1 -11 6 -11
16 1 9 -5 17 -13 17 -8 0 -11 5 -8 10 3 6 2 10 -4 10 -6 0 -8 7 -5 15 4 8 -1
17 -9 21 -9 3 -13 12 -10 20 3 7 -2 17 -11 20 -9 3 -13 10 -10 15 3 5 0 9 -5
9 -6 0 -11 10 -11 21 0 17 -3 19 -13 10 -11 -8 -13 -4 -9 21 4 23 2 29 -8 23
-10 -6 -12 -4 -7 8 4 11 2 14 -7 11 -7 -3 -16 2 -20 11 -4 11 -2 14 7 9 8 -5
8 -2 -2 9 -7 9 -18 14 -25 10 -6 -4 -5 1 3 10 12 16 8 22 -12 18 -5 -1 -6 3
-3 8 3 5 -4 20 -15 35 -11 14 -18 26 -14 26 3 0 -2 11 -11 25 -9 14 -22 25
-29 25 -14 0 -30 28 -34 61 0 5 -5 7 -11 4 -5 -3 -10 2 -10 13 0 24 -38 64
-53 55 -8 -4 -7 -1 1 9 11 14 10 17 -7 23 -12 3 -21 13 -21 21 0 8 -4 13 -9
10 -5 -4 -8 4 -7 17 2 14 -2 24 -10 24 -7 0 -10 -5 -7 -11 4 -6 2 -7 -3 -3 -5
5 -9 18 -9 30 0 16 -6 22 -22 22 -12 0 -26 5 -30 9 -4 5 -3 7 2 3 6 -3 17 -2
25 4 12 7 10 9 -7 9 -14 0 -23 6 -23 15 0 8 -5 15 -11 15 -6 0 -8 7 -5 16 4
10 2 13 -6 8 -8 -5 -9 -2 -4 11 5 14 4 15 -7 7 -8 -7 -18 -7 -27 -2 -12 8 -11
10 5 11 16 0 14 3 -10 14 -23 11 -25 14 -10 15 15 0 11 6 -18 25 -20 14 -37
31 -37 37 0 7 7 3 16 -8 14 -18 15 -18 4 4 -6 12 -15 22 -21 22 -6 0 -7 4 -4
10 3 5 0 7 -9 4 -24 -9 -39 5 -24 24 11 13 11 15 -4 9 -18 -6 -43 15 -31 27 4
4 -1 4 -11 0 -14 -5 -17 -4 -12 4 4 7 2 12 -3 12 -6 0 -11 6 -11 14 0 8 -9 18
-20 21 -11 4 -18 10 -15 15 3 5 0 12 -6 16 -7 4 -9 3 -5 -4 3 -6 2 -14 -4 -17
-6 -4 -10 -3 -9 2 3 20 -2 34 -11 28 -6 -4 -7 1 -3 11 5 14 3 16 -11 11 -9 -4
-15 -3 -11 2 3 6 -1 13 -9 18 -8 4 -15 11 -15 16 -1 4 -4 7 -7 6 -4 0 -15 13
-25 30 -10 17 -22 31 -25 31 -4 0 -1 -6 5 -14 9 -11 9 -16 0 -22 -7 -4 -9 -3
-6 3 4 6 -2 18 -13 28 -11 10 -17 22 -14 26 3 5 -3 6 -12 2 -12 -4 -15 -3 -10
5 4 7 2 12 -4 12 -6 0 -8 5 -4 12 5 7 2 9 -9 5 -11 -4 -14 -2 -11 7 3 8 0 17
-7 22 -8 4 -10 3 -5 -4 4 -8 2 -10 -8 -6 -9 3 -12 12 -9 22 5 12 2 14 -11 9
-10 -4 -15 -3 -11 3 3 6 -1 11 -9 11 -9 1 -20 3 -26 4 -5 1 -13 3 -16 4 -4 0
0 9 7 18 8 9 9 14 2 10 -18 -11 -45 4 -38 21 3 9 3 13 -1 9 -5 -4 -14 3 -21
15 -7 13 -12 17 -13 10 0 -7 -5 -10 -10 -7 -8 5 -7 11 1 21 10 12 9 13 -6 8
-13 -5 -16 -4 -11 4 5 8 1 10 -10 5 -13 -5 -16 -3 -11 10 4 12 2 14 -10 10
-11 -4 -14 -2 -9 5 6 11 -20 18 -47 13 -5 -1 -6 3 -2 9 3 6 12 7 18 3 7 -4 6
0 -2 10 -7 9 -16 15 -20 12 -12 -7 -62 31 -54 40 5 4 0 5 -9 2 -12 -4 -18 -1
-18 7 0 12 -33 29 -51 27 -4 0 -15 9 -25 21 -11 12 -13 18 -6 14 7 -4 12 -2
12 5 0 6 -8 9 -19 6 -14 -3 -18 -1 -14 10 3 7 2 13 -3 12 -22 -4 -35 2 -28 12
5 8 -1 10 -19 7 -18 -4 -24 -1 -20 9 3 7 -2 13 -11 13 -9 0 -16 8 -17 18 0 14
-2 14 -9 -3 -6 -15 -9 -16 -9 -4 -1 24 -47 63 -56 48 -6 -8 -4 -10 5 -4 9 5
11 4 6 -4 -4 -6 -12 -9 -17 -5 -5 3 -7 10 -4 15 7 11 -36 29 -49 21 -5 -3 -6
0 -2 6 4 7 1 12 -9 12 -20 0 -67 35 -58 43 3 3 -6 9 -21 13 -14 3 -24 9 -22
13 3 4 -5 8 -16 8 -12 1 -24 7 -28 14 -4 6 -12 9 -17 6 -5 -3 -21 5 -36 19
-15 14 -32 22 -37 19 -6 -4 -7 1 -3 12 6 16 5 16 -10 4 -15 -12 -18 -10 -26
10 -6 14 -10 17 -11 9 0 -12 -3 -11 -11 3 -5 9 -18 17 -28 17 -9 0 -27 9 -39
20 -26 25 -33 25 -26 3 3 -10 -2 -6 -11 10 -8 15 -18 27 -21 27 -3 0 -2 -4 1
-10 3 -5 2 -10 -2 -10 -5 0 -14 9 -21 20 -7 11 -17 20 -23 20 -5 0 -7 -4 -4
-10 3 -5 4 -10 1 -10 -3 0 -13 12 -21 28 -9 15 -14 19 -11 10 3 -10 1 -18 -4
-18 -6 0 -10 5 -10 11 0 5 -4 8 -9 5 -5 -3 -11 1 -15 9 -3 8 -15 15 -26 15
-12 0 -19 4 -15 9 3 6 -4 8 -15 6 -11 -2 -20 1 -20 6 0 6 -4 7 -10 4 -5 -3
-10 0 -10 7 0 9 -3 9 -10 -2 -5 -8 -10 -12 -11 -7 -1 4 -3 12 -4 17 -1 6 -3
13 -4 18 -1 4 -8 -2 -16 -12 -13 -17 -15 -17 -15 -4 0 9 -5 20 -12 24 -7 5 -8
3 -3 -7 8 -12 6 -12 -8 0 -10 8 -20 11 -24 7 -4 -3 -17 4 -30 16 -15 14 -23
17 -23 8 0 -9 -7 -6 -20 8 -23 24 -35 29 -24 10 4 -7 -4 -3 -18 10 -13 12 -27
19 -31 16 -4 -4 -13 -1 -22 6 -8 7 -24 10 -36 7 -12 -3 -22 0 -26 9 -3 8 -9
11 -14 8 -5 -3 -9 1 -9 8 0 11 -2 11 -9 0 -6 -10 -10 -10 -21 2 -7 9 -16 13
-21 10 -5 -3 -9 1 -9 8 0 9 -3 9 -10 -2 -7 -12 -10 -12 -10 -1 0 7 -6 11 -15
8 -8 -4 -17 -2 -20 3 -3 4 -17 7 -31 5 -15 -1 -28 3 -31 11 -3 8 -9 12 -13 9
-4 -3 -13 1 -19 9 -7 8 -21 12 -31 9 -11 -3 -28 1 -37 8 -12 10 -14 10 -9 2 4
-7 2 -13 -3 -13 -6 0 -11 5 -11 11 0 5 -4 7 -10 4 -5 -3 -10 -2 -10 3 0 6 -7
12 -14 15 -11 4 -13 1 -9 -11 5 -14 3 -13 -9 2 -9 12 -21 17 -32 13 -9 -4 -16
-2 -16 2 0 5 -7 12 -16 15 -15 6 -15 4 -3 -11 11 -15 10 -15 -9 1 -12 11 -25
16 -29 13 -3 -4 -12 -2 -20 4 -7 6 -25 13 -40 14 -76 8 -108 16 -111 25 -3 8
-8 7 -17 0 -9 -8 -15 -8 -20 0 -4 7 -12 7 -25 0 -13 -7 -21 -7 -25 0 -5 8 -11
8 -20 0 -10 -8 -15 -8 -21 1 -5 8 -3 9 6 4 9 -5 11 -4 6 4 -5 8 -12 9 -20 2
-7 -6 -17 -6 -26 -1 -8 5 -18 6 -22 4 -4 -3 -8 0 -8 7 0 7 -8 9 -21 6 -12 -3
-22 0 -26 9 -4 10 -9 11 -18 4 -6 -5 -15 -7 -19 -3 -10 10 -46 11 -46 1 0 -12
-23 -5 -37 12 -10 12 -12 12 -13 1 0 -11 -3 -11 -15 -1 -9 7 -18 10 -21 8 -3
-3 -21 -2 -40 2 -20 5 -37 4 -40 -2 -3 -5 -11 -4 -20 3 -11 9 -14 9 -14 0 0
-8 -5 -9 -19 -1 -14 7 -22 7 -26 0 -5 -8 -11 -7 -21 1 -8 6 -14 7 -14 2 0 -7
-15 -7 -40 -3 -23 4 -43 3 -46 -2 -3 -5 -12 -4 -20 3 -8 6 -14 7 -14 2 0 -7
-15 -7 -40 -3 -23 4 -43 3 -46 -2 -3 -5 -12 -4 -20 3 -8 6 -14 8 -14 3 0 -5
-86 -7 -194 -4 -151 4 -196 2 -206 -8z m1658 -177 c-3 -3 -9 2 -12 12 -6 14
-5 15 5 6 7 -7 10 -15 7 -18z m1313 -592 c13 -16 12 -17 -3 -4 -10 7 -18 15
-18 17 0 8 8 3 21 -13z m-5661 -378 c-7 -9 -15 -13 -17 -11 -6 6 20 36 26 30
2 -2 -2 -10 -9 -19z m-40 -45 c0 -5 -5 -10 -11 -10 -5 0 -7 5 -4 10 3 6 8 10
11 10 2 0 4 -4 4 -10z m-283 -266 c-3 -3 -12 -4 -19 -1 -8 3 -5 6 6 6 11 1 17
-2 13 -5z m6831 -39 c-3 -3 -9 2 -12 12 -6 14 -5 15 5 6 7 -7 10 -15 7 -18z
m-6976 -112 c-6 -3 -10 -8 -8 -12 3 -4 -1 -8 -9 -8 -13 0 -12 4 2 19 9 10 19
15 22 12 3 -4 0 -9 -7 -11z m7488 -508 c14 -19 14 -19 -2 -6 -10 7 -18 18 -18
24 0 6 1 8 3 6 1 -2 9 -13 17 -24z m-7875 -5 c-3 -5 -12 -10 -18 -10 -7 0 -6
4 3 10 19 12 23 12 15 0z m-140 -5030 c3 -5 2 -10 -4 -10 -5 0 -13 5 -16 10
-3 6 -2 10 4 10 5 0 13 -4 16 -10z m8070 -520 c3 -5 1 -10 -4 -10 -6 0 -11 5
-11 10 0 6 2 10 4 10 3 0 8 -4 11 -10z m-7657 -95 c-3 -3 -9 2 -12 12 -6 14
-5 15 5 6 7 -7 10 -15 7 -18z m7437 -255 c3 -5 1 -10 -4 -10 -6 0 -11 5 -11
10 0 6 2 10 4 10 3 0 8 -4 11 -10z m-1901 -1089 c3 -5 -1 -11 -9 -14 -9 -4
-12 -1 -8 9 6 16 10 17 17 5z"/>
<path d="M7575 9210 c3 -5 8 -10 11 -10 2 0 4 5 4 10 0 6 -5 10 -11 10 -5 0
-7 -4 -4 -10z"/>
<path d="M7885 9000 c3 -5 8 -10 11 -10 2 0 4 5 4 10 0 6 -5 10 -11 10 -5 0
-7 -4 -4 -10z"/>
<path d="M9030 7841 c0 -6 4 -13 10 -16 6 -3 7 1 4 9 -7 18 -14 21 -14 7z"/>
<path d="M9476 7033 c-6 -14 -5 -15 5 -6 7 7 10 15 7 18 -3 3 -9 -2 -12 -12z"/>
<path d="M800 3180 c0 -5 5 -10 11 -10 5 0 7 5 4 10 -3 6 -8 10 -11 10 -2 0
-4 -4 -4 -10z"/>
<path d="M1001 2783 c7 -12 15 -20 18 -17 3 2 -3 12 -13 22 -17 16 -18 16 -5
-5z"/>
<path d="M8915 2180 c-3 -5 -1 -10 4 -10 6 0 11 5 11 10 0 6 -2 10 -4 10 -3 0
-8 -4 -11 -10z"/>
<path d="M2030 1519 c0 -5 5 -7 10 -4 6 3 10 8 10 11 0 2 -4 4 -10 4 -5 0 -10
-5 -10 -11z"/>
</g>
</svg>
